<svg width="62" height="72" viewBox="0 0 62 72" fill="none" xmlns="http://www.w3.org/2000/svg">
<path d="M11.6894 1.65816L58.0803 29.7144C63.0003 32.6886 63.0003 39.826 58.0803 42.8002L11.6894 70.8564C6.59348 73.9377 0.0869141 70.2677 0.0869141 64.3154V8.19913C0.0869141 2.24688 6.59348 -1.4231 11.6894 1.65816Z" fill="#499ED7"/>
<path d="M11.689 70.8528L58.0799 42.7965C63 39.8223 63 32.685 58.0799 29.7108L48.687 24.0299L48.2283 24.0146L8.53516 71.8582C9.64852 71.7637 10.7264 71.42 11.689 70.8528Z" fill="#F04C4D"/>
<path d="M0.0859375 53.8787V64.3114C0.0859375 70.2675 6.59251 73.9336 11.6884 70.8524L58.0793 42.7961C61.0038 41.0299 62.1468 37.7958 61.5925 34.8369L0.0859375 53.8787Z" fill="#2B8EC6"/>
<path d="M4.20707 1.44769C2.96276 2.08153 1.91872 3.0482 1.19115 4.24013C0.463572 5.43206 0.0809939 6.80249 0.0859857 8.19893V18.0085L4.20707 1.44769Z" fill="#499ED7"/>
<path d="M58.0807 29.7142L11.6899 1.65793C10.7247 1.08942 9.64436 0.744551 8.52832 0.648682L48.2253 48.7598L58.0845 42.7999C63.0008 39.8219 63.0008 32.6884 58.0807 29.7142Z" fill="#92CA62"/>
<path d="M31.5299 44.1459L8.53516 71.8619C9.60174 71.7511 10.6722 71.4682 11.689 70.8565L58.0799 42.8003C61.0044 41.0341 62.1475 37.7999 61.5931 34.841L31.5299 44.1459Z" fill="#E13340"/>
<path d="M58.08 29.7144L48.6872 24.0336L48.2284 24.0183L37.9907 36.3586L48.2246 48.7601L58.0839 42.8002C63.0001 39.8222 63.0001 32.6886 58.08 29.7144Z" fill="#FCD770"/>
<path d="M41.793 40.965L48.2231 48.756L58.0823 42.7961C61.0069 41.0299 62.1499 37.7958 61.5956 34.8369L41.793 40.965Z" fill="#FFCC5C"/>
</svg>
