<svg width="63" height="75" viewBox="0 0 63 75" fill="none" xmlns="http://www.w3.org/2000/svg">
<path d="M60.9179 58.1276C59.8413 60.6373 58.5112 63.0304 56.9483 65.2697C54.8605 68.2518 53.1459 70.3124 51.8318 71.4593C49.7906 73.3333 47.5978 74.2975 45.2534 74.3519C43.5738 74.3519 41.5443 73.8737 39.1805 72.9017C36.8088 71.9336 34.6316 71.4593 32.6371 71.4593C30.5493 71.4593 28.3099 71.9336 25.911 72.9017C23.516 73.8737 21.5799 74.383 20.0986 74.4297C17.8552 74.5269 15.6119 73.5393 13.3763 71.4593C11.9495 70.2152 10.1649 68.0768 8.02268 65.052C5.72881 61.8289 3.84316 58.0771 2.36575 53.812C0.783371 49.1971 -0.00976562 44.7337 -0.00976562 40.4104C-0.00976562 35.461 1.05941 31.1882 3.20166 27.6113C4.82194 24.8022 7.13836 22.4576 9.92776 20.8036C12.6783 19.1538 15.8183 18.2655 19.0255 18.2298C20.8139 18.2298 23.1584 18.7819 26.0626 19.8705C28.9669 20.9591 30.8331 21.5112 31.6457 21.5112C32.26 21.5112 34.3245 20.8619 37.8392 19.575C41.1555 18.3814 43.9549 17.8876 46.2487 18.082C52.4694 18.5836 57.1388 21.033 60.2452 25.4496C54.6855 28.8205 51.9368 33.5365 51.9912 39.59C52.0378 44.3061 53.7524 48.229 57.1116 51.3432C58.5967 52.7644 60.3294 53.9016 62.2242 54.6985C61.8121 55.8921 61.3766 57.0312 60.9179 58.1276ZM46.6608 2.02103C46.6608 5.71456 45.3078 9.16703 42.6213 12.359C39.371 16.1536 35.4442 18.3503 31.1869 18.0043C31.1312 17.5398 31.104 17.0724 31.1053 16.6046C31.1053 13.055 32.6449 9.26034 35.3936 6.15389C36.7622 4.58317 38.504 3.27294 40.6151 2.23098C42.7224 1.20457 44.713 0.636932 46.587 0.539734C46.6375 1.03739 46.6608 1.53115 46.6608 2.02103Z" fill="white"/>
</svg>
