<svg width="38" height="43" viewBox="0 0 38 43" fill="none" xmlns="http://www.w3.org/2000/svg">
<mask id="mask0_21_1069" style="mask-type:luminance" maskUnits="userSpaceOnUse" x="13" y="4" width="25" height="39">
<path d="M37.4555 12.0693V34.8539C37.4555 36.4544 36.9512 37.9458 36.0303 39.2176C35.1532 40.4457 33.8809 41.4324 32.3242 42.0247C30.8109 42.6166 29.1881 42.7484 27.6753 42.4632C26.1401 42.1781 24.6926 41.4766 23.4864 40.38L15.0438 32.5292L13.4429 31.0598L15.0438 29.5907L23.5083 21.74C23.6183 21.6305 23.684 21.5647 23.7278 21.5209C24.3639 20.841 24.6707 20.0077 24.6707 19.1524C24.6707 18.3191 24.3639 17.4639 23.7278 16.784C23.6183 16.6744 23.5525 16.6087 23.5083 16.5649L19.6708 13.0121L18.0918 11.5431L19.6708 10.0736L23.4864 6.54284C24.6926 5.4247 26.1401 4.72285 27.6753 4.43765C29.1881 4.15283 30.8109 4.28428 32.3242 4.87621C33.8809 5.46852 35.1532 6.4552 36.0303 7.68326C36.9512 8.95514 37.4555 10.4465 37.4555 12.0693ZM33.4204 34.8539V12.0693C33.4204 11.3017 33.1794 10.5998 32.7847 10.0298C32.3461 9.43752 31.71 8.95514 30.8986 8.6484C30.0653 8.31938 29.1881 8.25366 28.3987 8.38511C27.6092 8.53848 26.8639 8.91131 26.2277 9.48171L24.013 11.5431L26.2496 13.6264C26.4253 13.8016 26.5787 13.9331 26.6663 14.043C28.0258 15.5121 28.7058 17.3321 28.7058 19.1524C28.7058 20.9724 28.0258 22.7928 26.6663 24.2618C26.491 24.4375 26.3592 24.569 26.2496 24.6785L19.3641 31.0598L26.2277 37.4196C26.8639 37.9896 27.6092 38.3624 28.3987 38.5158C29.1881 38.6695 30.0653 38.5819 30.8986 38.2529C31.71 37.9458 32.3461 37.4634 32.7847 36.8711C33.1794 36.301 33.4204 35.5992 33.4204 34.8539Z" fill="white"/>
</mask>
<g mask="url(#mask0_21_1069)">
<path d="M13.4434 4.15222H13.4879V42.7467H13.4434" fill="#FF6600"/>
<path d="M13.4434 4.15222H13.5956V42.7467H13.4434" fill="#FF6600"/>
<path d="M13.5508 4.15222H13.6845V42.7467H13.5508" fill="#FF6700"/>
<path d="M13.6404 4.15222H13.7741V42.7467H13.6404" fill="#FF6700"/>
<path d="M13.729 4.15222H13.8813V42.7467H13.729" fill="#FF6700"/>
<path d="M13.8149 4.15222H13.9709V42.7467H13.8149" fill="#FF6800"/>
<path d="M13.9263 4.15222H14.0562V42.7467H13.9263" fill="#FF6800"/>
<path d="M14.0112 4.15222H14.1449V42.7467H14.0112" fill="#FF6800"/>
<path d="M14.1003 4.15222H14.2526V42.7467H14.1003" fill="#FF6900"/>
<path d="M14.1892 4.15222H14.3415V42.7467H14.1892" fill="#FF6900"/>
<path d="M14.2981 4.15222H14.4318V42.7467H14.2981" fill="#FF6900"/>
<path d="M14.3862 4.15222H14.5162V42.7467H14.3862" fill="#FF6A00"/>
<path d="M14.4719 4.15222H14.6279V42.7467H14.4719" fill="#FF6A00"/>
<path d="M14.5833 4.15222H14.7132V42.7467H14.5833" fill="#FF6B00"/>
<path d="M14.6719 4.15222H14.8018V42.7467H14.6719" fill="#FF6B00"/>
<path d="M14.7578 4.15222H14.9138V42.7467H14.7578" fill="#FF6B00"/>
<path d="M14.8464 4.15222H14.9987V42.7467H14.8464" fill="#FF6C00"/>
<path d="M14.9543 4.15222H15.088V42.7467H14.9543" fill="#FF6C00"/>
<path d="M15.0435 4.15222H15.1734V42.7467H15.0435" fill="#FF6C00"/>
<path d="M15.1326 4.15222H15.2848V42.7467H15.1326" fill="#FF6D00"/>
<path d="M15.218 4.15222H15.374V42.7467H15.218" fill="#FF6D00"/>
<path d="M15.3293 4.15222H15.4593V42.7467H15.3293" fill="#FF6D00"/>
<path d="M15.415 4.15222H15.5487V42.7467H15.415" fill="#FF6E00"/>
<path d="M15.5039 4.15222H15.6562V42.7467H15.5039" fill="#FF6E00"/>
<path d="M15.6155 4.15222H15.7455V42.7467H15.6155" fill="#FF6E00"/>
<path d="M15.7009 4.15222H15.8346V42.7467H15.7009" fill="#FF6F00"/>
<path d="M15.7896 4.15222H15.9418V42.7467H15.7896" fill="#FF6F00"/>
<path d="M15.8752 4.15222H16.0312V42.7467H15.8752" fill="#FF6F00"/>
<path d="M15.9868 4.15222H16.1168V42.7467H15.9868" fill="#FF7000"/>
<path d="M16.0759 4.15222H16.2059V42.7467H16.0759" fill="#FF7000"/>
<path d="M16.1611 4.15222H16.3171V42.7467H16.1611" fill="#FF7000"/>
<path d="M16.2727 4.15222H16.4027V42.7467H16.2727" fill="#FF7100"/>
<path d="M16.3584 4.15222H16.4921V42.7467H16.3584" fill="#FF7100"/>
<path d="M16.447 4.15222H16.577V42.7467H16.447" fill="#FF7200"/>
<path d="M16.5369 4.15222H16.6891V42.7467H16.5369" fill="#FF7200"/>
<path d="M16.6443 4.15222H16.778V42.7467H16.6443" fill="#FF7200"/>
<path d="M16.7332 4.15222H16.8631V42.7467H16.7332" fill="#FF7300"/>
<path d="M16.8186 4.15222H16.9746V42.7467H16.8186" fill="#FF7300"/>
<path d="M16.9082 4.15222H17.0605V42.7467H16.9082" fill="#FF7300"/>
<path d="M17.0154 4.15222H17.1491V42.7467H17.0154" fill="#FF7400"/>
<path d="M17.1045 4.15222H17.2382V42.7467H17.1045" fill="#FF7400"/>
<path d="M17.1941 4.15222H17.3463V42.7467H17.1941" fill="#FF7400"/>
<path d="M17.3015 4.15222H17.4352V42.7467H17.3015" fill="#FF7500"/>
<path d="M17.3901 4.15222H17.5201V42.7467H17.3901" fill="#FF7500"/>
<path d="M17.4761 4.15222H17.6098V42.7467H17.4761" fill="#FF7500"/>
<path d="M17.5649 4.15222H17.7172V42.7467H17.5649" fill="#FF7600"/>
<path d="M17.6765 4.15222H17.8065V42.7467H17.6765" fill="#FF7600"/>
<path d="M17.7617 4.15222H17.8954V42.7467H17.7617" fill="#FF7600"/>
<path d="M17.8516 4.15222H18.0038V42.7467H17.8516" fill="#FF7700"/>
<path d="M17.9399 4.15222H18.0922V42.7467H17.9399" fill="#FF7700"/>
<path d="M18.0476 4.15222H18.1776V42.7467H18.0476" fill="#FF7700"/>
<path d="M18.1375 4.15222H18.2674V42.7467H18.1375" fill="#FF7800"/>
<path d="M18.2222 4.15222H18.3781V42.7467H18.2222" fill="#FF7800"/>
<path d="M18.3342 4.15222H18.4642V42.7467H18.3342" fill="#FF7800"/>
<path d="M18.4197 4.15222H18.5534V42.7467H18.4197" fill="#FF7900"/>
<path d="M18.509 4.15222H18.6613V42.7467H18.509" fill="#FF7900"/>
<path d="M18.5977 4.15222H18.7499V42.7467H18.5977" fill="#FF7A00"/>
<path d="M18.7051 4.15222H18.8388V42.7467H18.7051" fill="#FF7A00"/>
<path d="M18.7947 4.15222H18.9247V42.7467H18.7947" fill="#FF7A00"/>
<path d="M18.8796 4.15222H19.0356V42.7467H18.8796" fill="#FF7B00"/>
<path d="M18.9688 4.15222H19.121V42.7467H18.9688" fill="#FF7B00"/>
<path d="M19.0801 4.15222H19.2101V42.7467H19.0801" fill="#FF7B00"/>
<path d="M19.1655 4.15222H19.2992V42.7467H19.1655" fill="#FF7C00"/>
<path d="M19.2549 4.15222H19.4071V42.7467H19.2549" fill="#FF7C00"/>
<path d="M19.3623 4.15222H19.496V42.7467H19.3623" fill="#FF7C00"/>
<path d="M19.4517 4.15222H19.5816V42.7467H19.4517" fill="#FF7D00"/>
<path d="M19.5403 4.15222H19.6925V42.7467H19.5403" fill="#FF7D00"/>
<path d="M19.6265 4.15222H19.7824V42.7467H19.6265" fill="#FF7D00"/>
<path d="M19.7378 4.15222H19.8678V42.7467H19.7378" fill="#FF7E00"/>
<path d="M19.8228 4.15222H19.9564V42.7467H19.8228" fill="#FF7E00"/>
<path d="M19.9119 4.15222H20.0641V42.7467H19.9119" fill="#FF7E00"/>
<path d="M20.0005 4.15222H20.1527V42.7467H20.0005" fill="#FF7F00"/>
<path d="M20.1094 4.15222H20.2431V42.7467H20.1094" fill="#FF7F00"/>
<path d="M20.198 4.15222H20.328V42.7467H20.198" fill="#FF7F00"/>
<path d="M20.2834 4.15222H20.4394V42.7467H20.2834" fill="#FF8000"/>
<path d="M20.3948 4.15222H20.5247V42.7467H20.3948" fill="#FF8000"/>
<path d="M20.4836 4.15222H20.6136V42.7467H20.4836" fill="#FF8100"/>
<path d="M20.5693 4.15222H20.7216V42.7467H20.5693" fill="#FF8100"/>
<path d="M20.6582 4.15222H20.8105V42.7467H20.6582" fill="#FF8100"/>
<path d="M20.7664 4.15222H20.9V42.7467H20.7664" fill="#FF8200"/>
<path d="M20.8552 4.15222H20.9852V42.7467H20.8552" fill="#FF8200"/>
<path d="M20.9446 4.15222H21.0968V42.7467H20.9446" fill="#FF8200"/>
<path d="M21.0525 4.15222H21.1825V42.7467H21.0525" fill="#FF8300"/>
<path d="M21.1409 4.15222H21.2708V42.7467H21.1409" fill="#FF8300"/>
<path d="M21.2266 4.15222H21.3602V42.7467H21.2266" fill="#FF8300"/>
<path d="M21.3154 4.15222H21.4677V42.7467H21.3154" fill="#FF8400"/>
<path d="M21.4231 4.15222H21.5568V42.7467H21.4231" fill="#FF8400"/>
<path d="M21.5122 4.15222H21.6422V42.7467H21.5122" fill="#FF8400"/>
<path d="M21.6023 4.15222H21.7546V42.7467H21.6023" fill="#FF8500"/>
<path d="M21.6875 4.15222H21.8435V42.7467H21.6875" fill="#FF8500"/>
<path d="M21.7986 4.15222H21.9286V42.7467H21.7986" fill="#FF8500"/>
<path d="M21.8838 4.15222H22.0175V42.7467H21.8838" fill="#FF8600"/>
<path d="M21.9731 4.15222H22.1254V42.7467H21.9731" fill="#FF8600"/>
<path d="M22.0842 4.15222H22.2142V42.7467H22.0842" fill="#FF8600"/>
<path d="M22.1699 4.15222H22.3036V42.7467H22.1699" fill="#FF8700"/>
<path d="M22.2585 4.15222H22.3885V42.7467H22.2585" fill="#FF8700"/>
<path d="M22.3447 4.15222H22.5007V42.7467H22.3447" fill="#FF8800"/>
<path d="M22.4556 4.15222H22.5855V42.7467H22.4556" fill="#FF8800"/>
<path d="M22.5452 4.15222H22.6751V42.7467H22.5452" fill="#FF8800"/>
<path d="M22.6306 4.15222H22.7866V42.7467H22.6306" fill="#FF8900"/>
<path d="M22.7197 4.15222H22.872V42.7467H22.7197" fill="#FF8900"/>
<path d="M22.8271 4.15222H22.9608V42.7467H22.8271" fill="#FF8900"/>
<path d="M22.9165 4.15222H23.0465V42.7467H22.9165" fill="#FF8A00"/>
<path d="M23.0059 4.15222H23.1581V42.7467H23.0059" fill="#FF8A00"/>
<path d="M23.113 4.15222H23.2467V42.7467H23.113" fill="#FF8A00"/>
<path d="M23.2029 4.15222H23.3329V42.7467H23.2029" fill="#FF8B00"/>
<path d="M23.2881 4.15222H23.4441V42.7467H23.2881" fill="#FF8B00"/>
<path d="M23.3774 4.15222H23.5297V42.7467H23.3774" fill="#FF8B00"/>
<path d="M23.4888 4.15222H23.6187V42.7467H23.4888" fill="#FF8C00"/>
<path d="M23.5737 4.15222H23.7074V42.7467H23.5737" fill="#FF8C00"/>
<path d="M23.6628 4.15222H23.8151V42.7467H23.6628" fill="#FF8C00"/>
<path d="M23.7483 4.15222H23.9043V42.7467H23.7483" fill="#FF8D00"/>
<path d="M23.8596 4.15222H23.9896V42.7467H23.8596" fill="#FF8D00"/>
<path d="M23.9485 4.15222H24.0785V42.7467H23.9485" fill="#FF8D00"/>
<path d="M24.0339 4.15222H24.1899V42.7467H24.0339" fill="#FF8E00"/>
<path d="M24.1458 4.15222H24.2757V42.7467H24.1458" fill="#FF8E00"/>
<path d="M24.231 4.15222H24.3646V42.7467H24.231" fill="#FF8E00"/>
<path d="M24.3201 4.15222H24.4723V42.7467H24.3201" fill="#FF8F00"/>
<path d="M24.4087 4.15222H24.5609V42.7467H24.4087" fill="#FF8F00"/>
<path d="M24.5168 4.15222H24.6505V42.7467H24.5168" fill="#FF9000"/>
<path d="M24.606 4.15222H24.7359V42.7467H24.606" fill="#FF9000"/>
<path d="M24.6912 4.15222H24.8471V42.7467H24.6912" fill="#FF9000"/>
<path d="M24.7803 4.15222H24.9325V42.7467H24.7803" fill="#FF9100"/>
<path d="M24.8884 4.15222H25.0221V42.7467H24.8884" fill="#FF9100"/>
<path d="M24.9775 4.15222H25.1112V42.7467H24.9775" fill="#FF9100"/>
<path d="M25.0662 4.15222H25.2184V42.7467H25.0662" fill="#FF9200"/>
<path d="M25.1741 4.15222H25.3078V42.7467H25.1741" fill="#FF9200"/>
<path d="M25.2634 4.15222H25.3934V42.7467H25.2634" fill="#FF9200"/>
<path d="M25.3486 4.15222H25.5046V42.7467H25.3486" fill="#FF9300"/>
<path d="M25.4377 4.15222H25.59V42.7467H25.4377" fill="#FF9300"/>
<path d="M25.5493 4.15222H25.6793V42.7467H25.5493" fill="#FF9300"/>
<path d="M25.6343 4.15222H25.768V42.7467H25.6343" fill="#FF9400"/>
<path d="M25.7236 4.15222H25.8759V42.7467H25.7236" fill="#FF9400"/>
<path d="M25.8313 4.15222H25.965V42.7467H25.8313" fill="#FF9400"/>
<path d="M25.9209 4.15222H26.0509V42.7467H25.9209" fill="#FF9500"/>
<path d="M26.0095 4.15222H26.1395V42.7467H26.0095" fill="#FF9500"/>
<path d="M26.0947 4.15222H26.2507V42.7467H26.0947" fill="#FF9500"/>
<path d="M26.2063 4.15222H26.3363V42.7467H26.2063" fill="#FF9600"/>
<path d="M26.2915 4.15222H26.4252V42.7467H26.2915" fill="#FF9600"/>
<path d="M26.3809 4.15222H26.5331V42.7467H26.3809" fill="#FF9700"/>
<path d="M26.47 4.15222H26.6222V42.7467H26.47" fill="#FF9700"/>
<path d="M26.5779 4.15222H26.7116V42.7467H26.5779" fill="#FF9700"/>
<path d="M26.667 4.15222H26.797V42.7467H26.667" fill="#FF9800"/>
<path d="M26.7524 4.15222H26.9084V42.7467H26.7524" fill="#FF9800"/>
<path d="M26.864 4.15222H26.994V42.7467H26.864" fill="#FF9800"/>
<path d="M26.9526 4.15222H27.0826V42.7467H26.9526" fill="#FF9900"/>
<path d="M27.0386 4.15222H27.1723V42.7467H27.0386" fill="#FF9900"/>
<path d="M27.1274 4.15222H27.2797V42.7467H27.1274" fill="#FF9900"/>
<path d="M27.2349 4.15222H27.3685V42.7467H27.2349" fill="#FF9A00"/>
<path d="M27.3242 4.15222H27.4542V42.7467H27.3242" fill="#FF9A00"/>
<path d="M27.4138 4.15222H27.5661V42.7467H27.4138" fill="#FF9A00"/>
<path d="M27.499 4.15222H27.655V42.7467H27.499" fill="#FF9B00"/>
<path d="M27.6101 4.15222H27.7401V42.7467H27.6101" fill="#FF9B00"/>
<path d="M27.6953 4.15222H27.829V42.7467H27.6953" fill="#FF9B00"/>
<path d="M27.7847 4.15222H27.9369V42.7467H27.7847" fill="#FF9C00"/>
<path d="M27.8958 4.15222H28.0257V42.7467H27.8958" fill="#FF9C00"/>
<path d="M27.9814 4.15222H28.1151V42.7467H27.9814" fill="#FF9C00"/>
<path d="M28.0706 4.15222H28.2228V42.7467H28.0706" fill="#FF9D00"/>
<path d="M28.1562 4.15222H28.3122V42.7467H28.1562" fill="#FF9D00"/>
<path d="M28.2676 4.15222H28.3976V42.7467H28.2676" fill="#FF9D00"/>
<path d="M28.3569 4.15222H28.4869V42.7467H28.3569" fill="#FF9E00"/>
<path d="M28.4421 4.15222H28.5944V42.7467H28.4421" fill="#FF9E00"/>
<path d="M28.5312 4.15222H28.6835V42.7467H28.5312" fill="#FF9F00"/>
<path d="M28.6392 4.15222H28.7729V42.7467H28.6392" fill="#FF9F00"/>
<path d="M28.728 4.15222H28.858V42.7467H28.728" fill="#FF9F00"/>
<path d="M28.8171 4.15222H28.9694V42.7467H28.8171" fill="#FFA000"/>
<path d="M28.9246 4.15222H29.0545V42.7467H28.9246" fill="#FFA000"/>
<path d="M29.0142 4.15222H29.1441V42.7467H29.0142" fill="#FFA000"/>
<path d="M29.0996 4.15222H29.2556V42.7467H29.0996" fill="#FFA100"/>
<path d="M29.1887 4.15222H29.341V42.7467H29.1887" fill="#FFA100"/>
<path d="M29.2966 4.15222H29.4303V42.7467H29.2966" fill="#FFA100"/>
<path d="M29.385 4.15222H29.515V42.7467H29.385" fill="#FFA200"/>
<path d="M29.4741 4.15222H29.6264V42.7467H29.4741" fill="#FFA200"/>
<path d="M29.5598 4.15222H29.7158V42.7467H29.5598" fill="#FFA200"/>
<path d="M29.6716 4.15222H29.8016V42.7467H29.6716" fill="#FFA300"/>
<path d="M29.7568 4.15222H29.8905V42.7467H29.7568" fill="#FFA300"/>
<path d="M29.8455 4.15222H29.9977V42.7467H29.8455" fill="#FFA300"/>
<path d="M29.9573 4.15222H30.0872V42.7467H29.9573" fill="#FFA400"/>
<path d="M30.0422 4.15222H30.1759V42.7467H30.0422" fill="#FFA400"/>
<path d="M30.1318 4.15222H30.2841V42.7467H30.1318" fill="#FFA400"/>
<path d="M30.217 4.15222H30.373V42.7467H30.217" fill="#FFA500"/>
<path d="M30.3286 4.15222H30.4586V42.7467H30.3286" fill="#FFA500"/>
<path d="M30.4177 4.15222H30.5477V42.7467H30.4177" fill="#FFA600"/>
<path d="M30.5029 4.15222H30.6589V42.7467H30.5029" fill="#FFA600"/>
<path d="M30.615 4.15222H30.745V42.7467H30.615" fill="#FFA600"/>
<path d="M30.7 4.15222H30.8336V42.7467H30.7" fill="#FFA700"/>
<path d="M30.7891 4.15222H30.919V42.7467H30.7891" fill="#FFA700"/>
<path d="M30.8779 4.15222H31.0302V42.7467H30.8779" fill="#FFA700"/>
<path d="M30.9856 4.15222H31.1193V42.7467H30.9856" fill="#FFA800"/>
<path d="M31.0747 4.15222H31.2047V42.7467H31.0747" fill="#FFA800"/>
<path d="M31.1602 4.15222H31.3161V42.7467H31.1602" fill="#FFA800"/>
<path d="M31.2493 4.15222H31.4015V42.7467H31.2493" fill="#FFA900"/>
<path d="M31.3608 4.15222H31.4908V42.7467H31.3608" fill="#FFA900"/>
<path d="M31.4458 4.15222H31.5795V42.7467H31.4458" fill="#FFA900"/>
<path d="M31.5349 4.15222H31.6872V42.7467H31.5349" fill="#FFAA00"/>
<path d="M31.6431 4.15222H31.7768V42.7467H31.6431" fill="#FFAA00"/>
<path d="M31.7322 4.15222H31.8622V42.7467H31.7322" fill="#FFAA00"/>
<path d="M31.821 4.15222H31.951V42.7467H31.821" fill="#FFAB00"/>
<path d="M31.9072 4.15222H32.0632V42.7467H31.9072" fill="#FFAB00"/>
<path d="M32.0181 4.15222H32.148V42.7467H32.0181" fill="#FFAB00"/>
<path d="M32.103 4.15222H32.2367V42.7467H32.103" fill="#FFAC00"/>
<path d="M32.1926 4.15222H32.3449V42.7467H32.1926" fill="#FFAC00"/>
<path d="M32.2822 4.15222H32.4345V42.7467H32.2822" fill="#FFAD00"/>
<path d="M32.3896 4.15222H32.5233V42.7467H32.3896" fill="#FFAD00"/>
<path d="M32.4785 4.15222H32.6085V42.7467H32.4785" fill="#FFAD00"/>
<path d="M32.5645 4.15222H32.7204V42.7467H32.5645" fill="#FFAE00"/>
<path d="M32.6755 4.15222H32.8055V42.7467H32.6755" fill="#FFAE00"/>
<path d="M32.7607 4.15222H32.8944V42.7467H32.7607" fill="#FFAE00"/>
<path d="M32.8506 4.15222H33.0028V42.7467H32.8506" fill="#FFAF00"/>
<path d="M32.9392 4.15222H33.0915V42.7467H32.9392" fill="#FFAF00"/>
<path d="M33.0469 4.15222H33.1806V42.7467H33.0469" fill="#FFAF00"/>
<path d="M33.1357 4.15222H33.2657V42.7467H33.1357" fill="#FFB000"/>
<path d="M33.2222 4.15222H33.3781V42.7467H33.2222" fill="#FFB000"/>
<path d="M33.3103 4.15222H33.4626V42.7467H33.3103" fill="#FFB000"/>
<path d="M33.4214 4.15222H33.5514V42.7467H33.4214" fill="#FFB100"/>
<path d="M33.5078 4.15222H33.6415V42.7467H33.5078" fill="#FFB100"/>
<path d="M33.5964 4.15222H33.7487V42.7467H33.5964" fill="#FFB100"/>
<path d="M33.7039 4.15222H33.8375V42.7467H33.7039" fill="#FFB200"/>
<path d="M33.7932 4.15222H33.9232V42.7467H33.7932" fill="#FFB200"/>
<path d="M33.8826 4.15222H34.0348V42.7467H33.8826" fill="#FFB200"/>
<path d="M33.968 4.15222H34.124V42.7467H33.968" fill="#FFB300"/>
<path d="M34.0789 4.15222H34.2088V42.7467H34.0789" fill="#FFB300"/>
<path d="M34.165 4.15222H34.2987V42.7467H34.165" fill="#FFB300"/>
<path d="M34.2537 4.15222H34.4059V42.7467H34.2537" fill="#FFB400"/>
<path d="M34.3428 4.15222H34.495V42.7467H34.3428" fill="#FFB400"/>
<path d="M34.4509 4.15222H34.5846V42.7467H34.4509" fill="#FFB500"/>
<path d="M34.5396 4.15222H34.6695V42.7467H34.5396" fill="#FFB500"/>
<path d="M34.625 4.15222H34.781V42.7467H34.625" fill="#FFB500"/>
<path d="M34.7363 4.15222H34.8663V42.7467H34.7363" fill="#FFB600"/>
<path d="M34.8259 4.15222H34.9559V42.7467H34.8259" fill="#FFB600"/>
<path d="M34.9106 4.15222H35.0666V42.7467H34.9106" fill="#FFB600"/>
<path d="M35.0002 4.15222H35.1525V42.7467H35.0002" fill="#FFB700"/>
<path d="M35.1079 4.15222H35.2416V42.7467H35.1079" fill="#FFB700"/>
<path d="M35.1965 4.15222H35.3265V42.7467H35.1965" fill="#FFB700"/>
<path d="M35.2856 4.15222H35.4379V42.7467H35.2856" fill="#FFB800"/>
<path d="M35.3938 4.15222H35.5275V42.7467H35.3938" fill="#FFB800"/>
<path d="M35.4834 4.15222H35.6134V42.7467H35.4834" fill="#FFB800"/>
<path d="M35.5681 4.15222H35.7018V42.7467H35.5681" fill="#FFB900"/>
<path d="M35.6572 4.15222H35.8095V42.7467H35.6572" fill="#FFB900"/>
<path d="M35.7688 4.15222H35.8988V42.7467H35.7688" fill="#FFB900"/>
<path d="M35.854 4.15222H35.9877V42.7467H35.854" fill="#FFBA00"/>
<path d="M35.9434 4.15222H36.0956V42.7467H35.9434" fill="#FFBA00"/>
<path d="M36.0286 4.15222H36.1845V42.7467H36.0286" fill="#FFBA00"/>
<path d="M36.1401 4.15222H36.2701V42.7467H36.1401" fill="#FFBB00"/>
<path d="M36.2295 4.15222H36.3595V42.7467H36.2295" fill="#FFBB00"/>
<path d="M36.3142 4.15222H36.4665V42.7467H36.3142" fill="#FFBC00"/>
<path d="M36.4265 4.15222H36.5565V42.7467H36.4265" fill="#FFBC00"/>
<path d="M36.5115 4.15222H36.6452V42.7467H36.5115" fill="#FFBC00"/>
<path d="M36.6006 4.15222H36.7306V42.7467H36.6006" fill="#FFBD00"/>
<path d="M36.6895 4.15222H36.8417V42.7467H36.6895" fill="#FFBD00"/>
<path d="M36.7974 4.15222H36.9273V42.7467H36.7974" fill="#FFBD00"/>
<path d="M36.8862 4.15222H37.0162V42.7467H36.8862" fill="#FFBE00"/>
<path d="M36.9717 4.15222H37.1276V42.7467H36.9717" fill="#FFBE00"/>
<path d="M37.0615 4.15222H37.2138V42.7467H37.0615" fill="#FFBE00"/>
<path d="M37.1689 4.15222H37.3026V42.7467H37.1689" fill="#FFBF00"/>
<path d="M37.2578 4.15222H37.4546V42.7467H37.2578" fill="#FFBF00"/>
</g>
<mask id="mask1_21_1069" style="mask-type:luminance" maskUnits="userSpaceOnUse" x="0" y="0" width="29" height="39">
<path d="M0 30.5556V7.77103C0 6.14859 0.504295 4.65725 1.42525 3.38537C2.30238 2.15731 3.57463 1.17064 5.13133 0.578331C6.64459 0.00830781 8.24548 -0.145431 9.78027 0.139766C11.3154 0.424964 12.763 1.12645 13.9468 2.24495L26.2493 13.6265C26.425 13.8018 26.5783 13.9332 26.666 14.0431C28.0255 15.5122 28.7054 17.3322 28.7054 19.1526C28.7054 20.9726 28.0255 22.7929 26.666 24.262C26.4907 24.4376 26.3589 24.5691 26.2493 24.6786L13.9468 36.0821C12.763 37.1783 11.3154 37.8802 9.78027 38.1654C8.24548 38.4502 6.64459 38.3187 5.13133 37.7268C3.57463 37.1345 2.30238 36.1478 1.42525 34.9197C0.504295 33.6479 0 32.1565 0 30.5556ZM4.0351 7.77103V30.5556C4.0351 31.3013 4.2542 32.0032 4.67085 32.5732C5.10942 33.1655 5.74554 33.6479 6.55694 33.9546C7.39025 34.2836 8.24548 34.3713 9.05688 34.2179C9.84637 34.0645 10.5917 33.7136 11.2059 33.1213L23.508 21.7401C23.6179 21.6306 23.6836 21.5649 23.7275 21.521C24.3636 20.8411 24.6703 20.0078 24.6703 19.1526C24.6703 18.3193 24.3636 17.464 23.7275 16.7841C23.6179 16.6745 23.5522 16.6088 23.508 16.565L11.2059 5.18345C10.5917 4.61343 9.84637 4.24059 9.05688 4.08722C8.24548 3.95539 7.39025 4.02113 6.55694 4.35014C5.74554 4.65725 5.10942 5.13963 4.67085 5.73194C4.2542 6.30196 4.0351 7.00382 4.0351 7.77103Z" fill="white"/>
</mask>
<g mask="url(#mask1_21_1069)">
<path d="M0 -0.143982H0.066845V38.4505H0" fill="#8030C5"/>
<path d="M0 -0.143982H0.174533V38.4505H0" fill="#8030C5"/>
<path d="M0.111084 -0.143982H0.285617V38.4505H0.111084" fill="#8131C5"/>
<path d="M0.218994 -0.143982H0.393527V38.4505H0.218994" fill="#8131C5"/>
<path d="M0.348633 -0.143982H0.504598V38.4505H0.348633" fill="#8131C5"/>
<path d="M0.460205 -0.143982H0.612458V38.4505H0.460205" fill="#8131C5"/>
<path d="M0.571289 -0.143982H0.723542V38.4505H0.571289" fill="#8232C5"/>
<path d="M0.679932 -0.143982H0.854465V38.4505H0.679932" fill="#8232C5"/>
<path d="M0.79126 -0.143982H0.965793V38.4505H0.79126" fill="#8232C5"/>
<path d="M0.898193 -0.143982H1.07273V38.4505H0.898193" fill="#8332C5"/>
<path d="M1.01001 -0.143982H1.18455V38.4505H1.01001" fill="#8333C6"/>
<path d="M1.11743 -0.143982H1.29197V38.4505H1.11743" fill="#8333C6"/>
<path d="M1.22852 -0.143982H1.40305V38.4505H1.22852" fill="#8433C6"/>
<path d="M1.35864 -0.143982H1.5109V38.4505H1.35864" fill="#8433C6"/>
<path d="M1.47021 -0.143982H1.62247V38.4505H1.47021" fill="#8434C6"/>
<path d="M1.57764 -0.143982H1.7336V38.4505H1.57764" fill="#8434C6"/>
<path d="M1.68994 -0.143982H1.86447V38.4505H1.68994" fill="#8534C6"/>
<path d="M1.79736 -0.143982H1.9719V38.4505H1.79736" fill="#8534C6"/>
<path d="M1.90869 -0.143982H2.08322V38.4505H1.90869" fill="#8535C6"/>
<path d="M2.01587 -0.143982H2.19411V38.4505H2.01587" fill="#8635C6"/>
<path d="M2.12744 -0.143982H2.30197V38.4505H2.12744" fill="#8635C6"/>
<path d="M2.23486 -0.143982H2.41311V38.4505H2.23486" fill="#8635C6"/>
<path d="M2.3689 -0.143982H2.52115V38.4505H2.3689" fill="#8636C6"/>
<path d="M2.47656 -0.143982H2.63253V38.4505H2.47656" fill="#8736C6"/>
<path d="M2.58765 -0.143982H2.7399V38.4505H2.58765" fill="#8736C6"/>
<path d="M2.6958 -0.143982H2.87405V38.4505H2.6958" fill="#8736C6"/>
<path d="M2.80737 -0.143982H2.98191V38.4505H2.80737" fill="#8837C6"/>
<path d="M2.91504 -0.143982H3.09329V38.4505H2.91504" fill="#8837C6"/>
<path d="M3.02612 -0.143982H3.20066V38.4505H3.02612" fill="#8837C7"/>
<path d="M3.13403 -0.143982H3.31228V38.4505H3.13403" fill="#8937C7"/>
<path d="M3.24512 -0.143982H3.41965V38.4505H3.24512" fill="#8938C7"/>
<path d="M3.37524 -0.143982H3.53121V38.4505H3.37524" fill="#8938C7"/>
<path d="M3.48682 -0.143982H3.63907V38.4505H3.48682" fill="#8938C7"/>
<path d="M3.59424 -0.143982H3.7502V38.4505H3.59424" fill="#8A38C7"/>
<path d="M3.7063 -0.143982H3.88083V38.4505H3.7063" fill="#8A39C7"/>
<path d="M3.81714 -0.143982H3.99167V38.4505H3.81714" fill="#8A39C7"/>
<path d="M3.92505 -0.143982H4.09959V38.4505H3.92505" fill="#8B39C7"/>
<path d="M4.03613 -0.143982H4.21067V38.4505H4.03613" fill="#8B39C7"/>
<path d="M4.14429 -0.143982H4.31882V38.4505H4.14429" fill="#8B3AC7"/>
<path d="M4.25513 -0.143982H4.42966V38.4505H4.25513" fill="#8B3AC7"/>
<path d="M4.38525 -0.143982H4.53751V38.4505H4.38525" fill="#8C3AC7"/>
<path d="M4.49707 -0.143982H4.64932V38.4505H4.49707" fill="#8C3AC7"/>
<path d="M4.604 -0.143982H4.75626V38.4505H4.604" fill="#8C3BC7"/>
<path d="M4.71631 -0.143982H4.89084V38.4505H4.71631" fill="#8D3BC7"/>
<path d="M4.82373 -0.143982H4.99826V38.4505H4.82373" fill="#8D3BC7"/>
<path d="M4.93506 -0.143982H5.10959V38.4505H4.93506" fill="#8D3BC7"/>
<path d="M5.04272 -0.143982H5.21726V38.4505H5.04272" fill="#8E3CC8"/>
<path d="M5.1543 -0.143982H5.32883V38.4505H5.1543" fill="#8E3CC8"/>
<path d="M5.26172 -0.143982H5.43626V38.4505H5.26172" fill="#8E3CC8"/>
<path d="M5.39526 -0.143982H5.54752V38.4505H5.39526" fill="#8E3CC8"/>
<path d="M5.50293 -0.143982H5.6589V38.4505H5.50293" fill="#8F3DC8"/>
<path d="M5.6145 -0.143982H5.76676V38.4505H5.6145" fill="#8F3DC8"/>
<path d="M5.72241 -0.143982H5.90066V38.4505H5.72241" fill="#8F3DC8"/>
<path d="M5.83374 -0.143982H6.00828V38.4505H5.83374" fill="#903EC8"/>
<path d="M5.94141 -0.143982H6.11966V38.4505H5.94141" fill="#903EC8"/>
<path d="M6.05273 -0.143982H6.22727V38.4505H6.05273" fill="#903EC8"/>
<path d="M6.16016 -0.143982H6.3384V38.4505H6.16016" fill="#903EC8"/>
<path d="M6.27173 -0.143982H6.44626V38.4505H6.27173" fill="#913FC8"/>
<path d="M6.4021 -0.143982H6.55807V38.4505H6.4021" fill="#913FC8"/>
<path d="M6.51294 -0.143982H6.66519V38.4505H6.51294" fill="#913FC8"/>
<path d="M6.62085 -0.143982H6.77682V38.4505H6.62085" fill="#923FC8"/>
<path d="M6.73242 -0.143982H6.90695V38.4505H6.73242" fill="#9240C8"/>
<path d="M6.84058 -0.143982H7.01883V38.4505H6.84058" fill="#9240C8"/>
<path d="M6.95117 -0.143982H7.12571V38.4505H6.95117" fill="#9340C8"/>
<path d="M7.05908 -0.143982H7.23733V38.4505H7.05908" fill="#9340C9"/>
<path d="M7.17041 -0.143982H7.34495V38.4505H7.17041" fill="#9341C9"/>
<path d="M7.28198 -0.143982H7.45652V38.4505H7.28198" fill="#9341C9"/>
<path d="M7.41187 -0.143982H7.56412V38.4505H7.41187" fill="#9441C9"/>
<path d="M7.51929 -0.143982H7.67525V38.4505H7.51929" fill="#9441C9"/>
<path d="M7.63086 -0.143982H7.78311V38.4505H7.63086" fill="#9442C9"/>
<path d="M7.74243 -0.143982H7.91696V38.4505H7.74243" fill="#9542C9"/>
<path d="M7.85059 -0.143982H8.02512V38.4505H7.85059" fill="#9542C9"/>
<path d="M7.96118 -0.143982H8.13571V38.4505H7.96118" fill="#9542C9"/>
<path d="M8.06958 -0.143982H8.24411V38.4505H8.06958" fill="#9543C9"/>
<path d="M8.18042 -0.143982H8.35495V38.4505H8.18042" fill="#9643C9"/>
<path d="M8.28809 -0.143982H8.46262V38.4505H8.28809" fill="#9643C9"/>
<path d="M8.42212 -0.143982H8.57437V38.4505H8.42212" fill="#9643C9"/>
<path d="M8.52954 -0.143982H8.6818V38.4505H8.52954" fill="#9744C9"/>
<path d="M8.64111 -0.143982H8.79337V38.4505H8.64111" fill="#9744C9"/>
<path d="M8.74902 -0.143982H8.92356V38.4505H8.74902" fill="#9744C9"/>
<path d="M8.8606 -0.143982H9.03513V38.4505H8.8606" fill="#9844C9"/>
<path d="M8.96802 -0.143982H9.14255V38.4505H8.96802" fill="#9845C9"/>
<path d="M9.07935 -0.143982H9.25388V38.4505H9.07935" fill="#9845CA"/>
<path d="M9.18677 -0.143982H9.36501V38.4505H9.18677" fill="#9845CA"/>
<path d="M9.29834 -0.143982H9.47287V38.4505H9.29834" fill="#9945CA"/>
<path d="M9.42822 -0.143982H9.58419V38.4505H9.42822" fill="#9946CA"/>
<path d="M9.53955 -0.143982H9.6918V38.4505H9.53955" fill="#9946CA"/>
<path d="M9.64697 -0.143982H9.80294V38.4505H9.64697" fill="#9A46CA"/>
<path d="M9.75928 -0.143982H9.93381V38.4505H9.75928" fill="#9A46CA"/>
<path d="M9.86694 -0.143982H10.0452V38.4505H9.86694" fill="#9A47CA"/>
<path d="M9.97778 -0.143982H10.1523V38.4505H9.97778" fill="#9A47CA"/>
<path d="M10.0859 -0.143982H10.2642V38.4505H10.0859" fill="#9B47CA"/>
<path d="M10.1968 -0.143982H10.3713V38.4505H10.1968" fill="#9B47CA"/>
<path d="M10.3042 -0.143982H10.4824V38.4505H10.3042" fill="#9B48CA"/>
<path d="M10.4382 -0.143982H10.5905V38.4505H10.4382" fill="#9C48CA"/>
<path d="M10.5461 -0.143982H10.7021V38.4505H10.5461" fill="#9C48CA"/>
<path d="M10.657 -0.143982H10.8092V38.4505H10.657" fill="#9C48CA"/>
<path d="M10.7651 -0.143982H10.9434V38.4505H10.7651" fill="#9D49CA"/>
<path d="M10.877 -0.143982H11.0515V38.4505H10.877" fill="#9D49CA"/>
<path d="M10.988 -0.143982H11.1626V38.4505H10.988" fill="#9D49CA"/>
<path d="M11.0959 -0.143982H11.2705V38.4505H11.0959" fill="#9D49CA"/>
<path d="M11.2068 -0.143982H11.3813V38.4505H11.2068" fill="#9E4ACB"/>
<path d="M11.3142 -0.143982H11.4887V38.4505H11.3142" fill="#9E4ACB"/>
<path d="M11.4482 -0.143982H11.6005V38.4505H11.4482" fill="#9E4ACB"/>
<path d="M11.5562 -0.143982H11.7084V38.4505H11.5562" fill="#9F4BCB"/>
<path d="M11.667 -0.143982H11.8192V38.4505H11.667" fill="#9F4BCB"/>
<path d="M11.7756 -0.143982H11.9502V38.4505H11.7756" fill="#9F4BCB"/>
<path d="M11.8872 -0.143982H12.0617V38.4505H11.8872" fill="#9F4BCB"/>
<path d="M11.9946 -0.143982H12.1692V38.4505H11.9946" fill="#A04CCB"/>
<path d="M12.1055 -0.143982H12.28V38.4505H12.1055" fill="#A04CCB"/>
<path d="M12.2134 -0.143982H12.3879V38.4505H12.2134" fill="#A04CCB"/>
<path d="M12.3245 -0.143982H12.499V38.4505H12.3245" fill="#A14CCB"/>
<path d="M12.4548 -0.143982H12.6108V38.4505H12.4548" fill="#A14DCB"/>
<path d="M12.5662 -0.143982H12.7184V38.4505H12.5662" fill="#A14DCB"/>
<path d="M12.6736 -0.143982H12.8295V38.4505H12.6736" fill="#A24DCB"/>
<path d="M12.7856 -0.143982H12.9602V38.4505H12.7856" fill="#A24DCB"/>
<path d="M12.8931 -0.143982H13.0713V38.4505H12.8931" fill="#A24ECB"/>
<path d="M13.0046 -0.143982H13.1792V38.4505H13.0046" fill="#A24ECB"/>
<path d="M13.1123 -0.143982H13.2906V38.4505H13.1123" fill="#A34ECB"/>
<path d="M13.2236 -0.143982H13.3982V38.4505H13.2236" fill="#A34ECC"/>
<path d="M13.3311 -0.143982H13.5093V38.4505H13.3311" fill="#A34FCC"/>
<path d="M13.4651 -0.143982H13.6173V38.4505H13.4651" fill="#A44FCC"/>
<path d="M13.5728 -0.143982H13.7287V38.4505H13.5728" fill="#A44FCC"/>
<path d="M13.6838 -0.143982H13.8584V38.4505H13.6838" fill="#A44FCC"/>
<path d="M13.7915 -0.143982H13.9697V38.4505H13.7915" fill="#A450CC"/>
<path d="M13.9031 -0.143982H14.0776V38.4505H13.9031" fill="#A550CC"/>
<path d="M14.0112 -0.143982H14.1895V38.4505H14.0112" fill="#A550CC"/>
<path d="M14.1221 -0.143982H14.2966V38.4505H14.1221" fill="#A550CC"/>
<path d="M14.2336 -0.143982H14.4082V38.4505H14.2336" fill="#A651CC"/>
<path d="M14.364 -0.143982H14.5163V38.4505H14.364" fill="#A651CC"/>
<path d="M14.4714 -0.143982H14.6274V38.4505H14.4714" fill="#A651CC"/>
<path d="M14.5828 -0.143982H14.735V38.4505H14.5828" fill="#A751CC"/>
<path d="M14.6938 -0.143982H14.8684V38.4505H14.6938" fill="#A752CC"/>
<path d="M14.8022 -0.143982H14.9768V38.4505H14.8022" fill="#A752CC"/>
<path d="M14.9133 -0.143982H15.0879V38.4505H14.9133" fill="#A752CC"/>
<path d="M15.0212 -0.143982H15.1958V38.4505H15.0212" fill="#A852CC"/>
<path d="M15.1323 -0.143982H15.3069V38.4505H15.1323" fill="#A853CC"/>
<path d="M15.24 -0.143982H15.4145V38.4505H15.24" fill="#A853CD"/>
<path d="M15.374 -0.143982H15.5263V38.4505H15.374" fill="#A953CD"/>
<path d="M15.4814 -0.143982H15.6337V38.4505H15.4814" fill="#A953CD"/>
<path d="M15.5928 -0.143982H15.745V38.4505H15.5928" fill="#A954CD"/>
<path d="M15.7002 -0.143982H15.8747V38.4505H15.7002" fill="#A954CD"/>
<path d="M15.8125 -0.143982H15.987V38.4505H15.8125" fill="#AA54CD"/>
<path d="M15.9199 -0.143982H16.0945V38.4505H15.9199" fill="#AA54CD"/>
<path d="M16.0315 -0.143982H16.206V38.4505H16.0315" fill="#AA55CD"/>
<path d="M16.1387 -0.143982H16.3169V38.4505H16.1387" fill="#AB55CD"/>
<path d="M16.25 -0.143982H16.4245V38.4505H16.25" fill="#AB55CD"/>
<path d="M16.3799 -0.143982H16.5359V38.4505H16.3799" fill="#AB55CD"/>
<path d="M16.4915 -0.143982H16.6437V38.4505H16.4915" fill="#AC56CD"/>
<path d="M16.5989 -0.143982H16.7548V38.4505H16.5989" fill="#AC56CD"/>
<path d="M16.7102 -0.143982H16.8847V38.4505H16.7102" fill="#AC56CD"/>
<path d="M16.8184 -0.143982H16.9966V38.4505H16.8184" fill="#AC56CD"/>
<path d="M16.9299 -0.143982H17.1045V38.4505H16.9299" fill="#AD57CD"/>
<path d="M17.0376 -0.143982H17.2158V38.4505H17.0376" fill="#AD57CD"/>
<path d="M17.1489 -0.143982H17.3235V38.4505H17.1489" fill="#AD57CD"/>
<path d="M17.2561 -0.143982H17.4344V38.4505H17.2561" fill="#AE58CE"/>
<path d="M17.3901 -0.143982H17.5424V38.4505H17.3901" fill="#AE58CE"/>
<path d="M17.498 -0.143982H17.654V38.4505H17.498" fill="#AE58CE"/>
<path d="M17.6091 -0.143982H17.7614V38.4505H17.6091" fill="#AE58CE"/>
<path d="M17.717 -0.143982H17.8953V38.4505H17.717" fill="#AF59CE"/>
<path d="M17.8281 -0.143982H18.0027V38.4505H17.8281" fill="#AF59CE"/>
<path d="M17.9399 -0.143982H18.1145V38.4505H17.9399" fill="#AF59CE"/>
<path d="M18.0474 -0.143982H18.2219V38.4505H18.0474" fill="#B059CE"/>
<path d="M18.1587 -0.143982H18.3332V38.4505H18.1587" fill="#B05ACE"/>
<path d="M18.2661 -0.143982H18.4406V38.4505H18.2661" fill="#B05ACE"/>
<path d="M18.4001 -0.143982H18.5524V38.4505H18.4001" fill="#B15ACE"/>
<path d="M18.5081 -0.143982H18.6603V38.4505H18.5081" fill="#B15ACE"/>
<path d="M18.6189 -0.143982H18.7711V38.4505H18.6189" fill="#B15BCE"/>
<path d="M18.7271 -0.143982H18.9016V38.4505H18.7271" fill="#B15BCE"/>
<path d="M18.8386 -0.143982H19.0132V38.4505H18.8386" fill="#B25BCE"/>
<path d="M18.9463 -0.143982H19.1208V38.4505H18.9463" fill="#B25BCE"/>
<path d="M19.0574 -0.143982H19.2319V38.4505H19.0574" fill="#B25CCE"/>
<path d="M19.1655 -0.143982H19.3401V38.4505H19.1655" fill="#B35CCE"/>
<path d="M19.2761 -0.143982H19.4507V38.4505H19.2761" fill="#B35CCE"/>
<path d="M19.4065 -0.143982H19.5587V38.4505H19.4065" fill="#B35CCF"/>
<path d="M19.5181 -0.143982H19.6703V38.4505H19.5181" fill="#B35DCF"/>
<path d="M19.6257 -0.143982H19.7817V38.4505H19.6257" fill="#B45DCF"/>
<path d="M19.7371 -0.143982H19.9116V38.4505H19.7371" fill="#B45DCF"/>
<path d="M19.8445 -0.143982H20.0227V38.4505H19.8445" fill="#B45DCF"/>
<path d="M19.9563 -0.143982H20.1308V38.4505H19.9563" fill="#B55ECF"/>
<path d="M20.064 -0.143982H20.2422V38.4505H20.064" fill="#B55ECF"/>
<path d="M20.1755 -0.143982H20.3501V38.4505H20.1755" fill="#B55ECF"/>
<path d="M20.2832 -0.143982H20.4615V38.4505H20.2832" fill="#B65ECF"/>
<path d="M20.417 -0.143982H20.5692V38.4505H20.417" fill="#B65FCF"/>
<path d="M20.5242 -0.143982H20.6801V38.4505H20.5242" fill="#B65FCF"/>
<path d="M20.6357 -0.143982H20.788V38.4505H20.6357" fill="#B65FCF"/>
<path d="M20.7434 -0.143982H20.9217V38.4505H20.7434" fill="#B75FCF"/>
<path d="M20.8547 -0.143982H21.0293V38.4505H20.8547" fill="#B760CF"/>
<path d="M20.9629 -0.143982H21.1411V38.4505H20.9629" fill="#B760CF"/>
<path d="M21.074 -0.143982H21.2485V38.4505H21.074" fill="#B860CF"/>
<path d="M21.1814 -0.143982H21.3596V38.4505H21.1814" fill="#B860CF"/>
<path d="M21.2927 -0.143982H21.4673V38.4505H21.2927" fill="#B861CF"/>
<path d="M21.4229 -0.143982H21.5788V38.4505H21.4229" fill="#B861D0"/>
<path d="M21.5342 -0.143982H21.6864V38.4505H21.5342" fill="#B961D0"/>
<path d="M21.6421 -0.143982H21.7981V38.4505H21.6421" fill="#B961D0"/>
<path d="M21.7532 -0.143982H21.9277V38.4505H21.7532" fill="#B962D0"/>
<path d="M21.865 -0.143982H22.0395V38.4505H21.865" fill="#BA62D0"/>
<path d="M21.9731 -0.143982H22.1477V38.4505H21.9731" fill="#BA62D0"/>
<path d="M22.084 -0.143982H22.2585V38.4505H22.084" fill="#BA62D0"/>
<path d="M22.1917 -0.143982H22.3662V38.4505H22.1917" fill="#BB63D0"/>
<path d="M22.303 -0.143982H22.4775V38.4505H22.303" fill="#BB63D0"/>
<path d="M22.4333 -0.143982H22.5856V38.4505H22.4333" fill="#BB63D0"/>
<path d="M22.5444 -0.143982H22.6967V38.4505H22.5444" fill="#BB63D0"/>
<path d="M22.6521 -0.143982H22.8044V38.4505H22.6521" fill="#BC64D0"/>
<path d="M22.7632 -0.143982H22.9377V38.4505H22.7632" fill="#BC64D0"/>
<path d="M22.8708 -0.143982H23.0454V38.4505H22.8708" fill="#BC64D0"/>
<path d="M22.9832 -0.143982H23.1577V38.4505H22.9832" fill="#BD65D0"/>
<path d="M23.0906 -0.143982H23.2651V38.4505H23.0906" fill="#BD65D0"/>
<path d="M23.2017 -0.143982H23.3762V38.4505H23.2017" fill="#BD65D0"/>
<path d="M23.3096 -0.143982H23.4878V38.4505H23.3096" fill="#BD65D0"/>
<path d="M23.4436 -0.143982H23.5959V38.4505H23.4436" fill="#BE66D1"/>
<path d="M23.5508 -0.143982H23.7068V38.4505H23.5508" fill="#BE66D1"/>
<path d="M23.6624 -0.143982H23.8146V38.4505H23.6624" fill="#BE66D1"/>
<path d="M23.7698 -0.143982H23.948V38.4505H23.7698" fill="#BF66D1"/>
<path d="M23.8811 -0.143982H24.0556V38.4505H23.8811" fill="#BF67D1"/>
<path d="M23.989 -0.143982H24.1673V38.4505H23.989" fill="#BF67D1"/>
<path d="M24.1006 -0.143982H24.2751V38.4505H24.1006" fill="#C067D1"/>
<path d="M24.208 -0.143982H24.3863V38.4505H24.208" fill="#C067D1"/>
<path d="M24.3196 -0.143982H24.4941V38.4505H24.3196" fill="#C068D1"/>
<path d="M24.4497 -0.143982H24.6057V38.4505H24.4497" fill="#C068D1"/>
<path d="M24.5608 -0.143982H24.713V38.4505H24.5608" fill="#C168D1"/>
<path d="M24.6689 -0.143982H24.8249V38.4505H24.6689" fill="#C168D1"/>
<path d="M24.7798 -0.143982H24.9543V38.4505H24.7798" fill="#C169D1"/>
<path d="M24.8872 -0.143982H25.0655V38.4505H24.8872" fill="#C269D1"/>
<path d="M24.9993 -0.143982H25.1738V38.4505H24.9993" fill="#C269D1"/>
<path d="M25.1111 -0.143982H25.2856V38.4505H25.1111" fill="#C269D1"/>
<path d="M25.218 -0.143982H25.3926V38.4505H25.218" fill="#C26AD1"/>
<path d="M25.3293 -0.143982H25.5039V38.4505H25.3293" fill="#C36AD1"/>
<path d="M25.4597 -0.143982H25.612V38.4505H25.4597" fill="#C36AD2"/>
<path d="M25.5708 -0.143982H25.7231V38.4505H25.5708" fill="#C36AD2"/>
<path d="M25.679 -0.143982H25.8312V38.4505H25.679" fill="#C46BD2"/>
<path d="M25.79 -0.143982H25.9646V38.4505H25.79" fill="#C46BD2"/>
<path d="M25.8972 -0.143982H26.0717V38.4505H25.8972" fill="#C46BD2"/>
<path d="M26.0093 -0.143982H26.1838V38.4505H26.0093" fill="#C56BD2"/>
<path d="M26.1172 -0.143982H26.2917V38.4505H26.1172" fill="#C56CD2"/>
<path d="M26.2285 -0.143982H26.403V38.4505H26.2285" fill="#C56CD2"/>
<path d="M26.3362 -0.143982H26.5107V38.4505H26.3362" fill="#C56CD2"/>
<path d="M26.47 -0.143982H26.6222V38.4505H26.47" fill="#C66CD2"/>
<path d="M26.5774 -0.143982H26.7334V38.4505H26.5774" fill="#C66DD2"/>
<path d="M26.6885 -0.143982H26.8407V38.4505H26.6885" fill="#C66DD2"/>
<path d="M26.7964 -0.143982H26.9709V38.4505H26.7964" fill="#C76DD2"/>
<path d="M26.9082 -0.143982H27.0827V38.4505H26.9082" fill="#C76DD2"/>
<path d="M27.0159 -0.143982H27.1941V38.4505H27.0159" fill="#C76ED2"/>
<path d="M27.1274 -0.143982H27.302V38.4505H27.1274" fill="#C76ED2"/>
<path d="M27.2349 -0.143982H27.4131V38.4505H27.2349" fill="#C86ED2"/>
<path d="M27.3464 -0.143982H27.521V38.4505H27.3464" fill="#C86ED2"/>
<path d="M27.4758 -0.143982H27.6318V38.4505H27.4758" fill="#C86FD3"/>
<path d="M27.5874 -0.143982H27.7397V38.4505H27.5874" fill="#C96FD3"/>
<path d="M27.6951 -0.143982H27.851V38.4505H27.6951" fill="#C96FD3"/>
<path d="M27.8066 -0.143982H27.9812V38.4505H27.8066" fill="#C96FD3"/>
<path d="M27.9138 -0.143982H28.0921V38.4505H27.9138" fill="#CA70D3"/>
<path d="M28.0256 -0.143982H28.2002V38.4505H28.0256" fill="#CA70D3"/>
<path d="M28.1333 -0.143982H28.3116V38.4505H28.1333" fill="#CA70D3"/>
<path d="M28.2449 -0.143982H28.4194V38.4505H28.2449" fill="#CA70D3"/>
<path d="M28.3562 -0.143982H28.5307V38.4505H28.3562" fill="#CB71D3"/>
<path d="M28.4858 -0.143982H28.7049V38.4505H28.4858" fill="#CB71D3"/>
</g>
</svg>
